<?xml version="1.0" encoding="UTF-8" standalone="no"?>
<!DOCTYPE svg PUBLIC "-//W3C//DTD SVG 1.1//EN" "http://www.w3.org/Graphics/SVG/1.1/DTD/svg11.dtd">
<svg version="1.1" xmlns="http://www.w3.org/2000/svg" xmlns:xlink="http://www.w3.org/1999/xlink" preserveAspectRatio="xMidYMid meet" viewBox="0 0 640 640" width="640" height="640"><defs><path d="M361.51 475.45C361.51 554.12 422.79 618.13 498.12 618.13C573.45 618.13 634.74 554.13 634.74 475.45C634.74 396.78 573.45 332.77 498.12 332.77C422.79 332.77 361.51 396.78 361.51 475.45ZM516.52 494.66C516.52 507.83 516.52 515.14 516.52 516.6C516.52 527.22 508.28 535.82 498.12 535.82C487.96 535.82 479.73 527.22 479.73 516.6C479.73 515.14 479.73 507.83 479.73 494.66C467.12 494.66 460.12 494.66 458.72 494.66C448.55 494.66 440.32 486.06 440.32 475.45C440.32 464.84 448.55 456.24 458.72 456.24C460.12 456.24 467.12 456.24 479.73 456.24C479.73 443.07 479.73 435.76 479.73 434.29C479.73 423.69 487.96 415.08 498.12 415.08C508.28 415.08 516.52 423.69 516.52 434.29C516.52 435.76 516.52 443.07 516.52 456.24C529.12 456.24 536.13 456.24 537.53 456.24C547.69 456.24 555.92 464.84 555.92 475.45C555.92 486.06 547.69 494.66 537.53 494.66C534.73 494.66 527.72 494.66 516.52 494.66Z" id="dULnIB9"></path><path d="M339.18 166.78C339.18 88.11 277.89 24.1 202.57 24.1C127.24 24.1 65.95 88.11 65.95 166.78C65.95 245.46 127.24 309.46 202.57 309.46C277.9 309.46 339.18 245.45 339.18 166.78Z" id="b1QoRMGwpE"></path><path d="M312.71 306.56C282.74 332.37 244.35 347.89 202.57 347.89C160.78 347.89 122.4 332.37 92.42 306.56C40.8 343.4 6.84 405.36 6.84 475.45C6.84 482.65 6.84 540.27 6.84 547.47C6.84 586.44 37.18 618.13 74.49 618.13C100.1 618.13 305.02 618.13 330.64 618.13C347.1 618.13 362.2 611.96 373.94 601.72C343.5 569.07 324.71 524.51 324.71 475.45C324.71 431.82 339.57 391.74 364.27 360.44C350.44 339.31 332.94 321 312.71 306.56Z" id="fGkdEtnud"></path></defs><g><g><g><use xlink:href="#dULnIB9" opacity="1" fill="#b27092" fill-opacity="1"></use><g><use xlink:href="#dULnIB9" opacity="1" fill-opacity="0" stroke="#000000" stroke-width="1" stroke-opacity="0"></use></g></g><g><use xlink:href="#b1QoRMGwpE" opacity="1" fill="#b27092" fill-opacity="1"></use><g><use xlink:href="#b1QoRMGwpE" opacity="1" fill-opacity="0" stroke="#000000" stroke-width="1" stroke-opacity="0"></use></g></g><g><use xlink:href="#fGkdEtnud" opacity="1" fill="#b27092" fill-opacity="1"></use><g><use xlink:href="#fGkdEtnud" opacity="1" fill-opacity="0" stroke="#000000" stroke-width="1" stroke-opacity="0"></use></g></g></g></g></svg>