<?xml version="1.0" encoding="UTF-8" standalone="no"?>
<!DOCTYPE svg PUBLIC "-//W3C//DTD SVG 1.1//EN" "http://www.w3.org/Graphics/SVG/1.1/DTD/svg11.dtd">
<svg version="1.1" xmlns="http://www.w3.org/2000/svg" xmlns:xlink="http://www.w3.org/1999/xlink" preserveAspectRatio="xMidYMid meet" viewBox="0 0 640 640" width="640" height="640"><defs><path d="M509.79 403.13C509.79 389.31 509.79 278.77 509.79 264.96C509.79 217.39 490.33 172.7 454.98 139.12C433.19 118.41 406.99 103.49 378.4 95.12C382.97 86.88 385.56 77.51 385.56 67.56C385.56 34.91 357.7 8.35 323.45 8.35C289.2 8.35 261.34 34.91 261.34 67.56C261.34 77.57 263.96 86.99 268.57 95.26C192.55 117.9 137.11 186.26 137.11 266.67C137.11 280.32 137.11 389.48 137.11 403.13C137.11 424.9 118.53 442.61 95.7 442.61C84.26 442.61 74.99 451.45 74.99 462.35C74.99 470.24 74.99 533.41 74.99 541.3C74.99 552.21 84.26 561.04 95.7 561.04C111.3 561.04 236.12 561.04 251.73 561.04C251.24 564.29 250.98 567.58 250.98 570.91C250.98 609.01 283.49 640 323.45 640C363.41 640 395.92 609.01 395.92 570.91C395.92 567.58 395.66 564.29 395.17 561.04C410.77 561.04 535.6 561.04 551.2 561.04C562.64 561.04 571.91 552.21 571.91 541.3C571.91 533.41 571.91 470.24 571.91 462.35C571.91 451.45 562.64 442.61 551.2 442.61C528.37 442.61 509.79 424.9 509.79 403.13ZM344.15 67.56C344.15 78.45 334.87 87.3 323.45 87.3C312.03 87.3 302.75 78.45 302.75 67.56C302.75 56.68 312.03 47.83 323.45 47.83C334.87 47.83 344.15 56.68 344.15 67.56ZM323.45 600.52C306.32 600.52 292.39 587.24 292.39 570.91C292.39 567.5 292.99 564.18 294.15 561.04C300.01 561.04 346.89 561.04 352.74 561.04C353.91 564.18 354.51 567.5 354.51 570.91C354.51 587.24 340.58 600.52 323.45 600.52ZM530.5 521.57L364.86 521.57L282.04 521.57L116.4 521.57C116.4 496.38 116.4 482.39 116.4 479.59C152.08 470.8 178.52 439.85 178.52 403.13C178.52 389.48 178.52 280.32 178.52 266.67C178.52 189.8 243.3 127.05 322.93 126.78C323.1 126.78 323.28 126.78 323.45 126.78C362.07 126.78 398.38 141.08 425.75 167.08C453.24 193.2 468.38 227.96 468.38 264.96C468.38 278.77 468.38 389.31 468.38 403.13C468.38 439.85 494.82 470.8 530.5 479.59C530.5 485.19 530.5 499.18 530.5 521.57Z" id="av5XwswMm"></path><path d="M219.93 264.96C219.93 210.54 266.37 166.26 323.45 166.26C334.88 166.26 344.15 175.1 344.15 186C344.15 196.9 334.88 205.74 323.45 205.74C289.2 205.74 261.34 232.3 261.34 264.96C261.34 275.86 252.07 284.7 240.63 284.7C229.2 284.7 219.93 275.86 219.93 264.96Z" id="b1imXAH5xC"></path></defs><g><g><g><use xlink:href="#av5XwswMm" opacity="1" fill="#ffffff" fill-opacity="1"></use><g><use xlink:href="#av5XwswMm" opacity="1" fill-opacity="0" stroke="#000000" stroke-width="1" stroke-opacity="0"></use></g></g><g><use xlink:href="#b1imXAH5xC" opacity="1" fill="#ffffff" fill-opacity="1"></use><g><use xlink:href="#b1imXAH5xC" opacity="1" fill-opacity="0" stroke="#000000" stroke-width="1" stroke-opacity="0"></use></g></g></g></g></svg>