<?xml version="1.0" encoding="UTF-8" standalone="no"?>
<!DOCTYPE svg PUBLIC "-//W3C//DTD SVG 1.1//EN" "http://www.w3.org/Graphics/SVG/1.1/DTD/svg11.dtd">
<svg version="1.1" xmlns="http://www.w3.org/2000/svg" xmlns:xlink="http://www.w3.org/1999/xlink" preserveAspectRatio="xMidYMid meet" viewBox="0 0 640 640" width="640" height="640"><defs><path d="M399.5 183.97L107.04 183.97C125.51 356.89 135.77 452.96 137.83 472.17C139.74 490.06 154.83 503.62 172.82 503.62C188.91 503.62 317.63 503.62 333.73 503.62C351.71 503.62 366.8 490.06 368.71 472.17C372.82 433.74 383.08 337.68 399.5 183.97Z" id="b35YCYDO"></path><path d="M357.82 183.97C341.76 334.3 332.84 417.81 331.06 434.52C329.15 452.4 314.05 465.97 296.07 465.97C285.47 465.97 232.51 465.97 137.16 465.97C137.56 469.69 137.78 471.76 137.83 472.17C139.74 490.06 154.83 503.62 172.82 503.62C188.91 503.62 317.63 503.62 333.73 503.62C351.71 503.62 366.8 490.06 368.71 472.17C370.77 452.96 381.03 356.89 399.5 183.97L357.82 183.97Z" id="l3sTRkbc8x"></path><path d="M260.25 8.85C257.61 6.39 253.31 7.44 252.13 10.84C245.5 29.92 234.88 47.97 220.22 63.69C205.56 79.42 188.3 91.27 169.73 99.22C166.42 100.64 165.68 105 168.31 107.46C175.95 114.58 237.05 171.54 244.69 178.66C247.57 181.35 251.77 182.08 255.4 180.56C274.39 172.61 292.03 160.6 306.97 144.57C321.95 128.5 332.71 110.02 339.31 90.48C340.55 86.79 339.47 82.71 336.62 80.05C336.62 80.05 267.88 15.97 260.25 8.85Z" id="a1qjinYQAU"></path><path d="M325.46 69.64C319.48 80.78 312 91.35 302.97 101.03C288.03 117.06 270.39 129.08 251.4 137.03C247.77 138.55 243.57 137.81 240.69 135.12C235.67 130.44 195.51 93 190.49 88.32C183.81 92.53 176.87 96.17 169.73 99.22C166.42 100.64 165.68 105 168.31 107.46C175.95 114.58 237.05 171.54 244.69 178.66C247.57 181.35 251.77 182.08 255.4 180.56C274.39 172.61 292.03 160.6 306.97 144.57C321.95 128.5 332.71 110.02 339.31 90.48C340.55 86.79 339.47 82.71 336.62 80.05C336.62 80.05 326.58 70.68 325.46 69.64Z" id="a2KbmkFS8U"></path><path d="M104.22 224.36C95.94 224.36 89.22 217.64 89.22 209.36C89.22 206.74 89.22 185.82 89.22 183.2C89.22 174.92 95.94 168.2 104.22 168.2C134.58 168.2 377.42 168.2 407.78 168.2C416.06 168.2 422.78 174.92 422.78 183.2C422.78 185.82 422.78 206.74 422.78 209.36C422.78 217.64 416.06 224.36 407.78 224.36C347.07 224.36 134.58 224.36 104.22 224.36Z" id="eVplMDLY"></path><path d="M400.13 168.2C400.13 179.31 400.13 185.48 400.13 186.71C400.13 194.99 393.42 201.71 385.13 201.71C365.4 201.71 266.77 201.71 89.22 201.71C89.22 206.3 89.22 208.85 89.22 209.36C89.22 217.64 95.94 224.36 104.22 224.36C134.58 224.36 377.42 224.36 407.78 224.36C416.06 224.36 422.78 217.64 422.78 209.36C422.78 206.74 422.78 185.82 422.78 183.2C422.78 174.92 416.06 168.2 407.78 168.2C406.76 168.2 404.21 168.2 400.13 168.2Z" id="l38qko2aAy"></path><path d="M256 267.61C213.93 267.61 179.82 301.72 179.82 343.79C179.82 385.87 213.93 419.98 256 419.98C298.07 419.98 332.18 385.87 332.18 343.79C332.18 301.72 298.07 267.61 256 267.61Z" id="a1rrlgrTGD"></path><path d="M316.59 328.2C316.59 370.27 282.48 404.38 240.4 404.38C223.35 404.38 207.6 398.77 194.9 389.3C208.79 407.92 230.98 419.97 256 419.97C298.07 419.97 332.18 385.87 332.18 343.79C332.18 318.78 320.12 296.58 301.51 282.69C310.98 295.39 316.59 311.14 316.59 328.2Z" id="hlsYYW0R"></path><path d="M301.09 160.7C305.05 157.22 308.85 153.55 312.46 149.68C327.83 133.19 339.26 114.08 346.41 92.88C348.59 86.43 346.75 79.24 341.73 74.56C338.15 71.22 309.46 44.48 305.88 41.13C302.85 38.31 298.1 38.48 295.28 41.5C292.45 44.53 292.62 49.28 295.65 52.1C299.23 55.45 327.92 82.19 331.51 85.53C332.22 86.2 332.5 87.2 332.2 88.08C325.73 107.25 315.4 124.53 301.49 139.45C294.09 147.38 285.84 154.45 276.94 160.45C276.82 160.53 276.71 160.62 276.6 160.7C273.93 160.7 260.53 160.7 236.42 160.7C200.29 127.02 180.22 108.3 176.2 104.56C194.9 96.01 211.54 84 225.71 68.81C239.87 53.62 250.69 36.18 257.91 16.92C259.11 18.05 268.78 27.06 269.99 28.18C273.02 31.01 277.76 30.84 280.59 27.81C283.41 24.78 283.25 20.04 280.22 17.21C278.73 15.83 266.84 4.75 265.36 3.36C262.26 0.47 257.94 -0.65 253.82 0.37C249.71 1.39 246.43 4.38 245.04 8.38C238.54 27.09 228.35 43.98 214.74 58.58C201.12 73.18 184.99 84.54 166.78 92.33C162.89 93.99 160.14 97.48 159.41 101.65C158.68 105.83 160.1 110.05 163.2 112.95C166.61 116.13 183.69 132.05 214.43 160.7C185.04 160.7 168.71 160.7 165.44 160.7C161.3 160.7 157.94 164.06 157.94 168.2C157.94 172.35 161.3 175.7 165.44 175.7C189.68 175.7 383.54 175.7 407.78 175.7C411.91 175.7 415.28 179.07 415.28 183.2C415.28 185.82 415.28 206.74 415.28 209.36C415.28 213.49 411.91 216.86 407.78 216.86C377.42 216.86 134.58 216.86 104.22 216.86C100.09 216.86 96.72 213.49 96.72 209.36C96.72 206.74 96.72 185.82 96.72 183.2C96.72 179.07 100.09 175.7 104.22 175.7C106.63 175.7 125.93 175.7 128.34 175.7C132.48 175.7 135.84 172.35 135.84 168.2C135.84 164.06 132.48 160.7 128.34 160.7C125.93 160.7 106.63 160.7 104.22 160.7C91.82 160.7 81.72 170.8 81.72 183.2C81.72 185.82 81.72 206.74 81.72 209.36C81.72 221.76 91.82 231.86 104.22 231.86C104.43 231.86 105.45 231.86 107.29 231.86C122.8 377.05 131.41 457.71 133.14 473.85C135.46 495.6 153.71 512 175.58 512C191.67 512 320.4 512 336.49 512C358.37 512 376.61 495.6 378.94 473.85C380.66 457.71 389.28 377.05 404.79 231.86C406.58 231.86 407.58 231.86 407.78 231.86C420.18 231.86 430.28 221.76 430.28 209.36C430.28 206.74 430.28 185.82 430.28 183.2C430.28 170.8 420.18 160.7 407.78 160.7C386.44 160.7 311.76 160.7 301.09 160.7ZM356.73 467.28C361.99 462.03 364.9 459.11 365.49 458.53C365.49 458.53 363.85 473.6 363.73 474.27C362.79 473.34 360.46 471.01 356.73 467.28ZM122.37 231.86L148.31 231.86L134.81 245.36L122.5 233.04L122.37 231.86ZM385.1 274.92L382.4 300.18L376.76 305.83L357.13 286.2L376.76 266.57L385.1 274.92ZM142.31 418.54L139.41 391.39L154.44 406.42L142.31 418.54ZM134.81 266.57L154.44 286.2L134.81 305.83L129.73 300.76L126.92 274.46L134.81 266.57ZM285.66 235.94L305.29 255.57C297.55 263.3 293.26 267.6 292.4 268.46C286.32 265.51 279.83 263.27 273.04 261.86C272.6 261.42 270.38 259.2 266.39 255.21L285.66 235.94ZM187.32 343.79C187.32 305.92 218.13 275.11 256 275.11C293.87 275.11 324.68 305.92 324.68 343.79C324.68 381.67 293.87 412.48 256 412.48C218.13 412.48 187.32 381.67 187.32 343.79ZM136.48 363.91L132.76 329.1L134.81 327.04L154.08 346.31L136.48 363.91ZM145.42 316.43L165.05 296.81C173.47 305.23 178.15 309.91 179.09 310.85C176.99 315.74 175.34 320.87 174.2 326.19C173.56 326.83 170.39 330 164.69 335.7L145.42 316.43ZM315.9 266.18L335.92 286.2C329.52 292.6 325.96 296.16 325.25 296.87C319.9 289.01 313.25 282.1 305.61 276.46C306.98 275.09 310.41 271.66 315.9 266.18ZM238.4 261.99C231.71 263.43 225.31 265.67 219.32 268.6C218.45 267.73 214.1 263.39 206.28 255.57L225.91 235.94L245.18 255.21C241.56 258.83 239.3 261.09 238.4 261.99ZM206.14 276.64C198.52 282.31 191.9 289.24 186.58 297.12C185.85 296.39 182.21 292.75 175.65 286.2L195.68 266.18C201.25 271.76 204.74 275.24 206.14 276.64ZM165.05 275.59L145.42 255.96L165.44 235.94L185.07 255.57L165.05 275.59ZM145.42 376.18L164.69 356.91C171.44 363.64 175.19 367.38 175.94 368.12C177.21 372.29 178.79 376.33 180.66 380.2C179.62 381.24 174.42 386.44 165.05 395.81L145.42 376.18ZM188.67 393.41C194.31 401.05 201.21 407.7 209.07 413.04C208.18 413.94 203.71 418.4 195.68 426.44L175.65 406.42C182.59 399.48 186.93 395.14 188.67 393.41ZM222.76 420.57C225.64 421.83 228.61 422.92 231.65 423.85C232.55 424.76 237.06 429.27 245.18 437.4L225.91 456.67L206.28 437.05C215.07 428.26 220.56 422.77 222.76 420.57ZM255.79 448.01L275.05 467.28L255.78 486.55L236.52 467.28L255.79 448.01ZM266.39 437.4C274.42 429.37 278.88 424.91 279.77 424.02C282.91 423.08 285.97 421.98 288.95 420.71C290.04 421.79 295.48 427.24 305.29 437.05L285.66 456.67L266.39 437.4ZM302.67 413.22C310.56 407.9 317.49 401.27 323.16 393.66C324.01 394.51 328.26 398.76 335.92 406.42L315.89 426.44C308.84 419.39 304.43 414.98 302.67 413.22ZM331.19 380.48C333.21 376.36 334.89 372.05 336.22 367.58C336.93 366.87 340.48 363.31 346.88 356.92L366.15 376.18L346.52 395.81C338.35 387.63 333.24 382.52 331.19 380.48ZM372.72 390.83L369.71 419L357.13 406.42L372.72 390.83ZM375.55 364.37L357.49 346.31L376.76 327.04L379.27 329.55L375.55 364.37ZM346.88 335.7C341.51 330.33 338.53 327.35 337.93 326.75C336.76 321.12 335.02 315.71 332.78 310.55C333.69 309.64 338.28 305.05 346.52 296.81L366.15 316.43L346.88 335.7ZM346.52 275.59L326.5 255.57L346.13 235.94L366.15 255.97L346.52 275.59ZM315.89 244.96L302.79 231.86L329 231.86L315.89 244.96ZM255.78 244.6L243.04 231.86L268.53 231.86L255.78 244.6ZM195.68 244.96L182.57 231.86L208.78 231.86L195.68 244.96ZM154.83 467.28C150.9 471.22 148.71 473.41 148.27 473.84C148.18 473.32 146.64 459.09 146.64 459.09C147.74 460.18 150.47 462.91 154.83 467.28ZM145.42 436.65L165.05 417.02L185.07 437.05L165.44 456.67L145.42 436.65ZM195.68 447.65L215.3 467.28L195.68 486.91L176.05 467.28L195.68 447.65ZM206.8 497L225.91 477.89L245.02 497L206.8 497ZM266.55 497L285.66 477.89L304.77 497L266.55 497ZM296.27 467.28L315.89 447.65L335.52 467.28L315.89 486.91L296.27 467.28ZM326.5 437.05L346.52 417.02L366.15 436.65L346.13 456.67L326.5 437.05ZM376.76 245.36L363.26 231.86L389.7 231.86L389.63 232.48L376.76 245.36ZM165.44 477.89L184.56 497C179.17 497 176.18 497 175.58 497C167.57 497 160.3 493.6 155.23 488.1C156.59 486.74 159.99 483.34 165.44 477.89ZM327.01 497L346.13 477.89C352.41 484.17 355.9 487.66 356.6 488.36C351.54 493.71 344.38 497 336.49 497C335.23 497 332.07 497 327.01 497Z" id="bfya4klI"></path><path d="M228.58 356.28C226.81 352.4 225.88 348.18 225.88 343.79C225.88 327.19 239.39 313.67 256 313.67C260.14 313.67 263.5 310.31 263.5 306.17C263.5 302.03 260.14 298.67 256 298.67C231.12 298.67 210.88 318.91 210.88 343.79C210.88 350.8 212.53 357.71 215.64 363.94C215.1 364.25 210.84 366.77 210.3 367.09C207.21 368.92 207.91 373.59 211.41 374.42C213.19 374.85 227.46 378.26 229.24 378.69C231.87 379.31 234.51 377.75 235.23 375.15C235.71 373.38 239.6 359.23 240.08 357.46C241.04 354 237.29 351.13 234.19 352.96C233.07 353.62 229.14 355.95 228.58 356.28Z" id="b1werYKGJg"></path><path d="M284.27 311.5C281.65 310.88 279 312.44 278.29 315.04C277.8 316.81 273.92 330.96 273.43 332.73C272.48 336.19 276.23 339.06 279.32 337.23C279.85 336.92 284.02 334.45 284.54 334.14C285.58 337.22 286.12 340.46 286.12 343.79C286.12 360.15 272.82 373.66 256.47 373.91C252.33 373.98 249.02 377.39 249.09 381.53C249.15 385.63 252.49 388.91 256.58 388.91C256.62 388.91 256.66 388.91 256.7 388.91C281.19 388.54 301.12 368.3 301.12 343.79C301.12 337.73 299.93 331.85 297.65 326.39C298.2 326.06 302.66 323.43 303.21 323.1C306.31 321.27 305.6 316.6 302.11 315.77C298.54 314.92 286.05 311.93 284.27 311.5Z" id="f6DNTZc689"></path></defs><g><g><g><use xlink:href="#b35YCYDO" opacity="1" fill="#ecf4ff" fill-opacity="1"></use><g><use xlink:href="#b35YCYDO" opacity="1" fill-opacity="0" stroke="#000000" stroke-width="1" stroke-opacity="0"></use></g></g><g><use xlink:href="#l3sTRkbc8x" opacity="1" fill="#ddeafb" fill-opacity="1"></use><g><use xlink:href="#l3sTRkbc8x" opacity="1" fill-opacity="0" stroke="#000000" stroke-width="1" stroke-opacity="0"></use></g></g><g><use xlink:href="#a1qjinYQAU" opacity="1" fill="#b27092" fill-opacity="1"></use><g><use xlink:href="#a1qjinYQAU" opacity="1" fill-opacity="0" stroke="#000000" stroke-width="1" stroke-opacity="0"></use></g></g><g><use xlink:href="#a2KbmkFS8U" opacity="1" fill="#ab698b" fill-opacity="1"></use><g><use xlink:href="#a2KbmkFS8U" opacity="1" fill-opacity="0" stroke="#000000" stroke-width="1" stroke-opacity="0"></use></g></g><g><use xlink:href="#eVplMDLY" opacity="1" fill="#ecf4ff" fill-opacity="1"></use><g><use xlink:href="#eVplMDLY" opacity="1" fill-opacity="0" stroke="#000000" stroke-width="1" stroke-opacity="0"></use></g></g><g><use xlink:href="#l38qko2aAy" opacity="1" fill="#ddeafb" fill-opacity="1"></use><g><use xlink:href="#l38qko2aAy" opacity="1" fill-opacity="0" stroke="#000000" stroke-width="1" stroke-opacity="0"></use></g></g><g><use xlink:href="#a1rrlgrTGD" opacity="1" fill="#b1e4f9" fill-opacity="1"></use><g><use xlink:href="#a1rrlgrTGD" opacity="1" fill-opacity="0" stroke="#000000" stroke-width="1" stroke-opacity="0"></use></g></g><g><use xlink:href="#hlsYYW0R" opacity="1" fill="#90d8f9" fill-opacity="1"></use><g><use xlink:href="#hlsYYW0R" opacity="1" fill-opacity="0" stroke="#000000" stroke-width="1" stroke-opacity="0"></use></g></g><g><use xlink:href="#bfya4klI" opacity="1" fill="#000000" fill-opacity="1"></use><g><use xlink:href="#bfya4klI" opacity="1" fill-opacity="0" stroke="#000000" stroke-width="1" stroke-opacity="0"></use></g></g><g><use xlink:href="#b1werYKGJg" opacity="1" fill="#000000" fill-opacity="1"></use><g><use xlink:href="#b1werYKGJg" opacity="1" fill-opacity="0" stroke="#000000" stroke-width="1" stroke-opacity="0"></use></g></g><g><use xlink:href="#f6DNTZc689" opacity="1" fill="#000000" fill-opacity="1"></use><g><use xlink:href="#f6DNTZc689" opacity="1" fill-opacity="0" stroke="#000000" stroke-width="1" stroke-opacity="0"></use></g></g></g></g></svg>