<?xml version="1.0" encoding="UTF-8" standalone="no"?>
<!DOCTYPE svg PUBLIC "-//W3C//DTD SVG 1.1//EN" "http://www.w3.org/Graphics/SVG/1.1/DTD/svg11.dtd">
<svg version="1.1" xmlns="http://www.w3.org/2000/svg" xmlns:xlink="http://www.w3.org/1999/xlink" preserveAspectRatio="xMidYMid meet" viewBox="0 0 640 640" width="640" height="640"><defs><path d="M330.71 76.79C343.52 76.79 350.64 76.79 352.06 76.79C363.86 76.79 373.42 67.23 373.42 55.43C373.42 53.3 373.42 36.21 373.42 34.08C373.42 22.28 363.86 12.72 352.06 12.72C345.66 12.72 294.4 12.72 287.99 12.72C276.2 12.72 266.64 22.28 266.64 34.08C266.64 36.21 266.64 53.3 266.64 55.43C266.64 67.23 276.2 76.79 287.99 76.79C289.42 76.79 296.54 76.79 309.35 76.79C309.35 102.58 309.35 116.9 309.35 119.77C173.94 125.56 68.87 240.02 74.66 375.43C77.55 442.91 108.12 506.22 159.18 550.44C157.83 552.78 147.07 571.47 145.72 573.8C136.82 589.01 141.94 608.56 157.15 617.45C157.22 617.5 157.3 617.54 157.37 617.58C158.29 618.12 165.63 622.39 166.54 622.92C171.4 625.76 176.93 627.26 182.56 627.26C194.04 627.26 204.66 621.16 210.44 611.24C211.64 609.16 221.21 592.48 222.41 590.4C284.68 617.45 355.38 617.45 417.65 590.4C418.85 592.48 428.46 609.18 429.66 611.26C435.42 621.17 446.02 627.28 457.49 627.28C463.11 627.29 468.63 625.82 473.5 623.01C474.42 622.47 481.72 618.2 482.63 617.67C497.93 608.95 503.26 589.48 494.55 574.18C494.49 574.08 494.43 573.99 494.38 573.89C493.03 571.55 482.25 552.81 480.9 550.47C534.72 503.91 565.64 436.26 565.62 365.09C565.62 365.09 565.62 365.09 565.62 365.09C565.46 233.68 461.99 125.62 330.71 119.77C330.71 114.04 330.71 99.71 330.71 76.79ZM287.99 34.08L352.06 34.08L352.06 55.43L287.99 55.43L287.99 34.08ZM177.41 604.5C177.37 604.48 177.34 604.46 177.3 604.44C176.37 603.9 168.97 599.63 168.05 599.1C162.99 596.22 161.21 589.79 164.09 584.73C164.12 584.67 164.16 584.61 164.2 584.54C165.38 582.48 174.88 565.99 176.07 563.93C184.71 570.23 193.76 575.95 203.15 581.07C202.4 582.37 198.68 588.84 191.97 600.49C185.68 605.1 180.83 606.44 177.41 604.5ZM472 599.1C471.08 599.63 463.71 603.9 462.79 604.44C457.76 607.43 451.26 605.77 448.27 600.74C448.24 600.68 448.2 600.61 448.16 600.55C447.04 598.6 438.06 582.99 436.94 581.04C446.33 575.92 455.38 570.19 464.02 563.89C465.21 565.96 474.74 582.49 475.93 584.56C478.88 589.56 477.22 596.02 472.21 598.97C472.14 599.02 472.07 599.06 472 599.1ZM95.79 365.09C95.79 241.25 196.19 140.86 320.03 140.86C443.87 140.86 544.26 241.25 544.26 365.09C544.26 488.93 443.87 589.33 320.03 589.33C196.25 589.19 95.93 488.88 95.79 365.09Z" id="a56d6MMJrd"></path><path d="M117.15 365.09C117.15 477.14 207.98 567.97 320.03 567.97C432.08 567.97 522.91 477.14 522.91 365.09C522.78 253.1 432.03 162.34 320.03 162.21C207.98 162.21 117.15 253.04 117.15 365.09ZM138.5 365.09C138.5 264.84 219.78 183.57 320.03 183.57C420.28 183.57 501.55 264.84 501.55 365.09C501.44 465.3 420.24 546.51 320.03 546.62C219.78 546.62 138.5 465.35 138.5 365.09Z" id="c92CAi9eG"></path><path d="M200.51 90.15C154.64 44.28 80.27 44.28 34.4 90.15C-11.47 136.02 -3.85 210.39 42.02 256.26C46.19 260.43 45.33 260.43 49.5 256.26C64.61 241.16 185.42 120.36 200.52 105.26C202.52 103.25 203.64 100.53 203.64 97.7C203.64 94.86 202.51 92.15 200.51 90.15ZM57.7 98.14C92.74 70.24 142.41 70.24 177.45 98.14C168.44 107.15 123.43 152.16 42.4 233.19C24.93 165.2 30.03 120.19 57.7 98.14Z" id="ea4wKIcpi"></path><path d="M37.42 163.68C37.42 165.07 37.42 166.44 37.53 167.82C39.67 167.71 56.75 166.8 58.89 166.69C58.89 165.7 58.8 164.69 58.8 163.68C58.76 149.51 64.39 135.92 74.43 125.93C73.43 124.92 68.39 119.89 59.31 110.83C44.69 132.84 37.39 150.46 37.42 163.68Z" id="c6EwsFPlW"></path><path d="M439.54 90.15C435.36 94.31 435.36 101.08 439.53 105.25C439.53 105.25 439.53 105.25 439.54 105.26C454.64 120.36 575.45 241.16 590.55 256.26C594.72 260.43 601.48 260.43 605.65 256.26C651.45 210.36 651.45 136.05 605.65 90.15C559.75 44.35 485.44 44.35 439.54 90.15ZM462.61 98.14C504.13 65.08 564.59 71.93 597.65 113.45C625.56 148.48 625.56 198.15 597.65 233.19C570.65 206.18 476.12 111.65 462.61 98.14Z" id="b4J7jkAikX"></path></defs><g><g><g><use xlink:href="#a56d6MMJrd" opacity="1" fill="#b27092" fill-opacity="1"></use><g><use xlink:href="#a56d6MMJrd" opacity="1" fill-opacity="0" stroke="#000000" stroke-width="1" stroke-opacity="0"></use></g></g><g><use xlink:href="#c92CAi9eG" opacity="1" fill="#b27092" fill-opacity="1"></use><g><use xlink:href="#c92CAi9eG" opacity="1" fill-opacity="0" stroke="#000000" stroke-width="1" stroke-opacity="0"></use></g></g><g><use xlink:href="#ea4wKIcpi" opacity="1" fill="#b27092" fill-opacity="1"></use><g><use xlink:href="#ea4wKIcpi" opacity="1" fill-opacity="0" stroke="#000000" stroke-width="1" stroke-opacity="0"></use></g></g><g><use xlink:href="#c6EwsFPlW" opacity="1" fill="#b27092" fill-opacity="1"></use><g><use xlink:href="#c6EwsFPlW" opacity="1" fill-opacity="0" stroke="#000000" stroke-width="1" stroke-opacity="0"></use></g></g><g><use xlink:href="#b4J7jkAikX" opacity="1" fill="#b27092" fill-opacity="1"></use><g><use xlink:href="#b4J7jkAikX" opacity="1" fill-opacity="0" stroke="#000000" stroke-width="1" stroke-opacity="0"></use></g></g></g></g></svg>