<?xml version="1.0" encoding="UTF-8" standalone="no"?>
<!DOCTYPE svg PUBLIC "-//W3C//DTD SVG 1.1//EN" "http://www.w3.org/Graphics/SVG/1.1/DTD/svg11.dtd">
<svg version="1.1" xmlns="http://www.w3.org/2000/svg" xmlns:xlink="http://www.w3.org/1999/xlink" preserveAspectRatio="xMidYMid meet" viewBox="0 0 640 640" width="640" height="640"><defs><path d="M212 542.67C212 510.67 212 254.67 212 222.67C212 193.25 235.94 169.33 265.33 169.33C290.93 169.33 495.73 169.33 521.33 169.33C550.73 169.33 574.67 193.25 574.67 222.67C574.67 254.67 574.67 510.67 574.67 542.67C574.67 572.09 550.73 596 521.33 596C470.13 596 290.93 596 265.33 596C235.94 596 212 572.09 212 542.67ZM233.33 222.67C233.33 254.67 233.33 510.67 233.33 542.67C233.33 560.31 247.69 574.67 265.33 574.67C290.93 574.67 495.73 574.67 521.33 574.67C538.98 574.67 553.33 560.31 553.33 542.67C553.33 510.67 553.33 254.67 553.33 222.67C553.33 205.02 538.98 190.67 521.33 190.67C470.13 190.67 316.53 190.67 265.33 190.67C247.69 190.67 233.33 205.02 233.33 222.67Z" id="b9yfhKBAhC"></path><path d="M212 542.67C212 510.67 212 254.67 212 222.67C212 193.25 235.94 169.33 265.33 169.33C290.93 169.33 495.73 169.33 521.33 169.33C550.73 169.33 574.67 193.25 574.67 222.67C574.67 254.67 574.67 510.67 574.67 542.67C574.67 572.09 550.73 596 521.33 596C470.13 596 290.93 596 265.33 596C235.94 596 212 572.09 212 542.67ZM233.33 222.67C233.33 254.67 233.33 510.67 233.33 542.67C233.33 560.31 247.69 574.67 265.33 574.67C290.93 574.67 495.73 574.67 521.33 574.67C538.98 574.67 553.33 560.31 553.33 542.67C553.33 510.67 553.33 254.67 553.33 222.67C553.33 205.02 538.98 190.67 521.33 190.67C470.13 190.67 316.53 190.67 265.33 190.67C247.69 190.67 233.33 205.02 233.33 222.67Z" id="a2icGB3mI"></path><path d="M105.33 478.67C105.33 444.53 105.33 171.47 105.33 137.33C105.33 107.91 129.27 84 158.67 84C184.27 84 389.07 84 414.67 84C444.06 84 468 107.91 468 137.33C468 143.22 463.22 148 457.33 148C451.45 148 446.67 143.22 446.67 137.33C446.67 119.69 432.31 105.33 414.67 105.33C389.07 105.33 184.27 105.33 158.67 105.33C141.02 105.33 126.67 119.69 126.67 137.33C126.67 171.47 126.67 444.53 126.67 478.67C126.67 496.31 141.02 510.67 158.67 510.67C160.8 510.67 177.87 510.67 180 510.67C185.89 510.67 190.67 515.45 190.67 521.33C190.67 527.22 185.89 532 180 532C175.73 532 160.8 532 158.67 532C129.27 532 105.33 508.09 105.33 478.67Z" id="d2IA1jzk68"></path><path d="M105.33 478.67C105.33 444.53 105.33 171.47 105.33 137.33C105.33 107.91 129.27 84 158.67 84C184.27 84 389.07 84 414.67 84C444.06 84 468 107.91 468 137.33C468 143.22 463.22 148 457.33 148C451.45 148 446.67 143.22 446.67 137.33C446.67 119.69 432.31 105.33 414.67 105.33C389.07 105.33 184.27 105.33 158.67 105.33C141.02 105.33 126.67 119.69 126.67 137.33C126.67 171.47 126.67 444.53 126.67 478.67C126.67 496.31 141.02 510.67 158.67 510.67C160.8 510.67 177.87 510.67 180 510.67C185.89 510.67 190.67 515.45 190.67 521.33C190.67 527.22 185.89 532 180 532C175.73 532 160.8 532 158.67 532C129.27 532 105.33 508.09 105.33 478.67Z" id="h3566gqPC"></path><path d="M297.33 436C297.33 430.11 302.11 425.33 308 425.33C325.07 425.33 461.6 425.33 478.67 425.33C484.55 425.33 489.33 430.11 489.33 436C489.33 441.89 484.55 446.67 478.67 446.67C444.53 446.67 325.07 446.67 308 446.67C302.11 446.67 297.33 441.89 297.33 436Z" id="c16F7ndyEy"></path><path d="M297.33 436C297.33 430.11 302.11 425.33 308 425.33C325.07 425.33 461.6 425.33 478.67 425.33C484.55 425.33 489.33 430.11 489.33 436C489.33 441.89 484.55 446.67 478.67 446.67C444.53 446.67 325.07 446.67 308 446.67C302.11 446.67 297.33 441.89 297.33 436Z" id="f3NEOONZg"></path><path d="M297.33 521.33C297.33 515.45 302.11 510.67 308 510.67C325.07 510.67 461.6 510.67 478.67 510.67C484.55 510.67 489.33 515.45 489.33 521.33C489.33 527.22 484.55 532 478.67 532C444.53 532 325.07 532 308 532C302.11 532 297.33 527.22 297.33 521.33Z" id="b1XXsYVanJ"></path><path d="M297.33 521.33C297.33 515.45 302.11 510.67 308 510.67C325.07 510.67 461.6 510.67 478.67 510.67C484.55 510.67 489.33 515.45 489.33 521.33C489.33 527.22 484.55 532 478.67 532C444.53 532 325.07 532 308 532C302.11 532 297.33 527.22 297.33 521.33Z" id="a3ncAIyuvE"></path><path d="M297.33 350.67C297.33 344.78 302.11 340 308 340C325.07 340 461.6 340 478.67 340C484.55 340 489.33 344.78 489.33 350.67C489.33 356.55 484.55 361.33 478.67 361.33C444.53 361.33 325.07 361.33 308 361.33C302.11 361.33 297.33 356.55 297.33 350.67Z" id="beUleB5hh"></path><path d="M297.33 350.67C297.33 344.78 302.11 340 308 340C325.07 340 461.6 340 478.67 340C484.55 340 489.33 344.78 489.33 350.67C489.33 356.55 484.55 361.33 478.67 361.33C444.53 361.33 325.07 361.33 308 361.33C302.11 361.33 297.33 356.55 297.33 350.67Z" id="i9qnViZY6"></path><path d="M297.33 265.33C297.33 259.45 302.11 254.67 308 254.67C325.07 254.67 461.6 254.67 478.67 254.67C484.55 254.67 489.33 259.45 489.33 265.33C489.33 271.22 484.55 276 478.67 276C444.53 276 325.07 276 308 276C302.11 276 297.33 271.22 297.33 265.33Z" id="aaMUxR6zv"></path><path d="M297.33 265.33C297.33 259.45 302.11 254.67 308 254.67C325.07 254.67 461.6 254.67 478.67 254.67C484.55 254.67 489.33 259.45 489.33 265.33C489.33 271.22 484.55 276 478.67 276C444.53 276 325.07 276 308 276C302.11 276 297.33 271.22 297.33 265.33Z" id="cVVp8DVk"></path></defs><g><g><g><use xlink:href="#b9yfhKBAhC" opacity="1" fill="#b27092" fill-opacity="1"></use><g><use xlink:href="#b9yfhKBAhC" opacity="1" fill-opacity="0" stroke="#000000" stroke-width="1" stroke-opacity="0"></use></g></g><g><use xlink:href="#a2icGB3mI" opacity="1" fill="#000000" fill-opacity="0"></use><g><use xlink:href="#a2icGB3mI" opacity="1" fill-opacity="0" stroke="#000000" stroke-width="1" stroke-opacity="0"></use></g></g><g><use xlink:href="#d2IA1jzk68" opacity="1" fill="#b27092" fill-opacity="1"></use><g><use xlink:href="#d2IA1jzk68" opacity="1" fill-opacity="0" stroke="#000000" stroke-width="1" stroke-opacity="0"></use></g></g><g><use xlink:href="#h3566gqPC" opacity="1" fill="#000000" fill-opacity="0"></use><g><use xlink:href="#h3566gqPC" opacity="1" fill-opacity="0" stroke="#000000" stroke-width="1" stroke-opacity="0"></use></g></g><g><use xlink:href="#c16F7ndyEy" opacity="1" fill="#b27092" fill-opacity="1"></use><g><use xlink:href="#c16F7ndyEy" opacity="1" fill-opacity="0" stroke="#000000" stroke-width="1" stroke-opacity="0"></use></g></g><g><use xlink:href="#f3NEOONZg" opacity="1" fill="#000000" fill-opacity="0"></use><g><use xlink:href="#f3NEOONZg" opacity="1" fill-opacity="0" stroke="#000000" stroke-width="1" stroke-opacity="0"></use></g></g><g><use xlink:href="#b1XXsYVanJ" opacity="1" fill="#b27092" fill-opacity="1"></use><g><use xlink:href="#b1XXsYVanJ" opacity="1" fill-opacity="0" stroke="#000000" stroke-width="1" stroke-opacity="0"></use></g></g><g><use xlink:href="#a3ncAIyuvE" opacity="1" fill="#000000" fill-opacity="0"></use><g><use xlink:href="#a3ncAIyuvE" opacity="1" fill-opacity="0" stroke="#000000" stroke-width="1" stroke-opacity="0"></use></g></g><g><use xlink:href="#beUleB5hh" opacity="1" fill="#b27092" fill-opacity="1"></use><g><use xlink:href="#beUleB5hh" opacity="1" fill-opacity="0" stroke="#000000" stroke-width="1" stroke-opacity="0"></use></g></g><g><use xlink:href="#i9qnViZY6" opacity="1" fill="#000000" fill-opacity="0"></use><g><use xlink:href="#i9qnViZY6" opacity="1" fill-opacity="0" stroke="#000000" stroke-width="1" stroke-opacity="0"></use></g></g><g><use xlink:href="#aaMUxR6zv" opacity="1" fill="#b27092" fill-opacity="1"></use><g><use xlink:href="#aaMUxR6zv" opacity="1" fill-opacity="0" stroke="#000000" stroke-width="1" stroke-opacity="0"></use></g></g><g><use xlink:href="#cVVp8DVk" opacity="1" fill="#000000" fill-opacity="0"></use><g><use xlink:href="#cVVp8DVk" opacity="1" fill-opacity="0" stroke="#000000" stroke-width="1" stroke-opacity="0"></use></g></g></g></g></svg>