<svg enable-background="new 0 0 110 110" height="512" viewBox="0 0 110 110" width="512" xmlns="http://www.w3.org/2000/svg"><path d="m32.3885117 18.6646557-13.870142 13.870142c-.9737892.9737892-.9737892 2.5396919-.0065861 3.5068932l55.7107658 55.7107658c.967041.967041 2.5396881.973793 3.5134811 0l13.8701401-13.8701401c.9672012-.9672012.967041-2.5464401 0-3.5134811l-55.7107658-55.7107659c-.9672012-.9672012-2.5396881-.9606151-3.5068931.0065861zm-.519825 13.350317c-1.1843853 1.1843872-3.0991917 1.1908112-4.2834167.006588-1.1843853-1.1843853-1.1843853-3.1056175 0-4.2900028s3.0990314-1.1777992 4.2834167.0065861c1.184227 1.1842231 1.1843872 3.0924453 0 4.2768287z" fill="#fcd462"/><g fill="#304551"><path d="m70.639175 61.675175h7.839697v2.380038h-7.839697z" transform="matrix(.707 -.707 .707 .707 -22.615 71.134)"/><path d="m78.386063 66.674484h5.559866v2.3712h-5.559866z" transform="matrix(.707 -.707 .707 .707 -24.211 77.269)"/><path d="m35.842983 26.8834h7.839697v2.3712h-7.839697z" transform="matrix(.707 -.707 .707 .707 -8.202 36.338)"/><path d="m43.586742 31.87516h5.559866v2.3712h-5.559866z" transform="matrix(.707 -.707 .707 .707 -9.797 42.469)"/><path d="m59.040447 50.080864h7.839697v2.3712h-7.839697z" transform="matrix(.707 -.707 .707 .707 -17.81 59.535)"/><path d="m47.441715 38.477711h7.839697v2.380038h-7.839697z" transform="matrix(.707 -.707 .707 .707 -13.006 47.937)"/><path d="m55.185474 43.469475h5.559866v2.380038h-5.559866z" transform="matrix(.707 -.707 .707 .707 -14.601 54.068)"/><path d="m66.787331 55.071331h5.559866v2.380038h-5.559866z" transform="matrix(.707 -.707 .707 .707 -19.407 65.67)"/><path d="m82.237907 73.278328h7.839697v2.3712h-7.839697z" transform="matrix(.707 -.707 .707 .707 -27.419 82.733)"/></g><path d="m26.98032 65.1687088 10.269535 7.7365189 6.7533532 8.7813644-18.4955464 7.0973053-5.2117958.227623.147192-5.141983z" fill="#e1e6e9"/><path d="m26.840754 41.128223h56.975601v23.718779h-56.975601z" fill="#cd5248" transform="matrix(.696 -.718 .718 .696 -21.229 55.796)"/><path d="m27.274748 50.116787h54.116791v7.793343h-54.116791z" fill="#de594e" transform="matrix(.696 -.718 .718 .696 -22.267 55.393)"/><path d="m20.443058 83.8695374 5.0646038 4.91436-7.8391762 3.0118866z" fill="#3a556a"/><path d="m71.6197891 19.1683407-6.2486725 6.4397106 17.0223008 16.5173187 6.2486572-6.4397659c2.0883179-2.1521797 2.0365524-5.5897808-.1156235-7.6781063l-9.2285309-8.9547615c-2.1521835-2.0883331-5.5897979-2.0365753-7.6781311.1156044z" fill="#fed35b"/><path d="m71.707756 22.319552h3.743005v23.718773h-3.743005z" fill="#ededed" transform="matrix(.696 -.718 .718 .696 -2.189 63.183)"/></svg>