<?xml version="1.0" encoding="UTF-8" standalone="no"?>
<!DOCTYPE svg PUBLIC "-//W3C//DTD SVG 1.1//EN" "http://www.w3.org/Graphics/SVG/1.1/DTD/svg11.dtd">
<svg version="1.1" xmlns="http://www.w3.org/2000/svg" xmlns:xlink="http://www.w3.org/1999/xlink" preserveAspectRatio="xMidYMid meet" viewBox="0 0 640 640" width="640" height="640"><defs><path d="M545.38 94.63C536.38 85.63 527 77 516.88 69.87C461 25.25 392.38 0 320 0C234.87 0 155 34.25 94.63 94.63C34.25 155 0 234.87 0 320C0 392.75 25.25 461.37 69.88 517.25C77.38 527 85.63 536.37 94.63 545.38C103.63 554.38 113 562.62 122.75 570.12C178.62 614.75 247.25 640 320 640C405.13 640 485 605.75 545.38 545.38C605.75 485 640 405.12 640 320C640 247.63 614.75 179 570.12 123.13C563 113 554.38 103.62 545.38 94.63ZM147.5 147.5C193.63 101.75 254.75 76.25 320 76.25C372.5 76.25 422.37 92.75 463.63 123.13C429.61 157.17 157.51 429.57 123.5 463.62C92.75 422.37 76.25 372.5 76.25 320C76.25 254.75 101.75 193.63 147.5 147.5ZM320 563.75C267.5 563.75 217.63 547.25 176.37 516.5C210.42 482.49 482.82 210.39 516.88 176.38C547.25 217.62 563.75 267.5 563.75 320C563.75 385.25 538.25 446.38 492.5 492.5C446.38 538.25 385.25 563.75 320 563.75Z" id="b3kEm3sCV4"></path><path d="M320 640C405.13 640 485 605.75 545.38 545.38C605.75 485 640 405.12 640 320C640 247.63 614.75 179 570.12 123.13C563 113 554.38 103.62 545.38 94.63C500.3 139.7 139.7 500.3 94.63 545.38C103.62 554.38 113 562.62 122.75 570.12C178.62 614.75 247.25 640 320 640ZM563.75 320C563.75 385.25 538.25 446.38 492.5 492.5C446.38 538.25 385.25 563.75 320 563.75C267.5 563.75 217.63 547.25 176.37 516.5C199.07 493.82 312.57 380.45 516.88 176.37C548.13 237.12 563.75 285 563.75 320Z" id="a1K7Tc2GZR"></path></defs><g><g><g><use xlink:href="#b3kEm3sCV4" opacity="1" fill="#512d38" fill-opacity="1"></use><g><use xlink:href="#b3kEm3sCV4" opacity="1" fill-opacity="0" stroke="#000000" stroke-width="1" stroke-opacity="0"></use></g></g><g><use xlink:href="#a1K7Tc2GZR" opacity="1" fill="#512d38" fill-opacity="1"></use><g><use xlink:href="#a1K7Tc2GZR" opacity="1" fill-opacity="0" stroke="#000000" stroke-width="1" stroke-opacity="0"></use></g></g></g></g></svg>