<?xml version="1.0" encoding="UTF-8" standalone="no"?>
<!DOCTYPE svg PUBLIC "-//W3C//DTD SVG 1.1//EN" "http://www.w3.org/Graphics/SVG/1.1/DTD/svg11.dtd">
<svg version="1.1" xmlns="http://www.w3.org/2000/svg" xmlns:xlink="http://www.w3.org/1999/xlink" preserveAspectRatio="xMidYMid meet" viewBox="0 0 640 640" width="640" height="640"><defs><path d="M553.11 17.7C550.93 2.49 532.23 -3.84 521.29 7.1C517.43 10.97 486.53 41.86 482.67 45.72C433.01 15.77 376.64 0 318.66 0C144.33 0 4.36 136.45 0.01 310.64C-0.23 320.16 6.69 328.33 16.1 329.68C23.59 330.75 83.53 339.32 91.03 340.39C102.2 342.02 112.59 333.25 112.43 321.57C110.88 206.61 203.73 112.5 318.66 112.5C346.5 112.5 374 118.16 399.41 128.98C395.69 132.7 365.91 162.48 362.19 166.2C351.32 177.08 357.49 195.84 372.79 198.03C391.35 200.68 539.84 221.89 558.4 224.54C570.63 226.39 581.38 215.75 579.63 203.32C574.32 166.2 555.76 36.27 553.11 17.7Z" id="cdkoryTFg"></path><path d="M549.03 301.07C539.35 299.85 527.62 308.14 527.62 321.25C527.62 434.98 435.1 527.5 321.37 527.5C293.69 527.5 266.31 521.9 240.99 511.18C244.59 507.58 273.42 478.75 277.02 475.15C287.89 464.28 281.72 445.52 266.42 443.33C247.86 440.67 99.37 419.45 80.81 416.79C68.62 415.05 57.82 425.51 59.59 438.02C62.24 456.58 83.45 605.07 86.1 623.63C88.28 638.87 106.97 645.15 117.92 634.23C121.88 630.28 153.52 598.65 157.47 594.7C206.89 624.38 263.23 640 321.37 640C494.86 640 634.81 504.23 639.99 330.9C640.27 321.36 633.35 313.12 623.9 311.77C608.92 309.63 556.51 302.14 549.03 301.07Z" id="a2kOg7MG47"></path></defs><g><g><g><use xlink:href="#cdkoryTFg" opacity="1" fill="#b27092" fill-opacity="1"></use><g><use xlink:href="#cdkoryTFg" opacity="1" fill-opacity="0" stroke="#000000" stroke-width="1" stroke-opacity="0"></use></g></g><g><use xlink:href="#a2kOg7MG47" opacity="1" fill="#b27092" fill-opacity="1"></use><g><use xlink:href="#a2kOg7MG47" opacity="1" fill-opacity="0" stroke="#000000" stroke-width="1" stroke-opacity="0"></use></g></g></g></g></svg>