<?xml version="1.0" encoding="UTF-8" standalone="no"?>
<!DOCTYPE svg PUBLIC "-//W3C//DTD SVG 1.1//EN" "http://www.w3.org/Graphics/SVG/1.1/DTD/svg11.dtd">
<svg version="1.1" xmlns="http://www.w3.org/2000/svg" xmlns:xlink="http://www.w3.org/1999/xlink" preserveAspectRatio="xMidYMid meet" viewBox="0 0 640 640" width="640" height="640"><defs><path d="M283.85 106.01C294.79 99.44 308.71 107.32 308.71 120.08C308.71 126.66 308.71 179.32 308.71 185.9C313.04 186.54 317.37 187.18 321.7 187.83C357.72 192.93 393.86 202.17 428 214.69C488.39 236.83 544.67 273.04 583.64 324.88C624.2 378.82 643.55 447.85 639.47 515.03C639.46 515.1 639.46 515.17 639.45 515.24C638.68 527.44 628.3 536.79 616.09 536.34C615.83 536.34 615.58 536.33 615.32 536.32C605.28 535.95 596.64 529.03 594.22 519.28C594.17 519.11 594.13 518.94 594.09 518.8C587.22 492.41 575.96 467.02 560.53 444.52C534.28 406.22 495.56 379.61 450.57 368.33C405.15 356.94 358.65 359.92 312.98 367.83C310.2 368.31 308.71 368.57 308.71 368.57C308.71 375.15 308.71 427.81 308.71 434.39C308.71 447.15 294.79 455.03 283.85 448.46C256.26 432.74 35.55 307.02 7.96 291.3C-2.65 284.93 -2.65 269.54 7.96 263.16C63.14 231.73 256.26 121.72 283.85 106.01Z" id="bqVDEMhB2"></path></defs><g><g><g><use xlink:href="#bqVDEMhB2" opacity="1" fill="#b27092" fill-opacity="1"></use><g><use xlink:href="#bqVDEMhB2" opacity="1" fill-opacity="0" stroke="#000000" stroke-width="1" stroke-opacity="0"></use></g></g></g></g></svg>