<?xml version="1.0" encoding="UTF-8" standalone="no"?>
<!DOCTYPE svg PUBLIC "-//W3C//DTD SVG 1.1//EN" "http://www.w3.org/Graphics/SVG/1.1/DTD/svg11.dtd">
<svg version="1.1" xmlns="http://www.w3.org/2000/svg" xmlns:xlink="http://www.w3.org/1999/xlink" preserveAspectRatio="xMidYMid meet" viewBox="0 0 640 640" width="640" height="640"><defs><path d="M632.65 302.28C619.58 289.28 515.08 185.28 502.02 172.28C492.23 162.54 476.4 162.58 466.66 172.37C456.92 182.15 456.96 197.98 466.74 207.72C472.59 213.54 501.82 242.63 554.45 295C236.78 295 60.3 295 25 295C11.19 295 0 306.19 0 320C0 333.81 11.19 345 25 345C60.3 345 236.78 345 554.45 345C501.82 397.37 472.59 426.46 466.74 432.28C456.96 442.02 456.92 457.85 466.66 467.64C476.4 477.42 492.23 477.46 502.02 467.72C515.08 454.72 619.58 350.72 632.65 337.72C632.65 337.71 632.66 337.7 632.67 337.7C642.46 327.92 642.43 312.04 632.67 302.3C632.66 302.3 632.65 302.29 632.65 302.28Z" id="coxr0KrpA"></path></defs><g><g><g><use xlink:href="#coxr0KrpA" opacity="1" fill="#b27092" fill-opacity="1"></use><g><use xlink:href="#coxr0KrpA" opacity="1" fill-opacity="0" stroke="#000000" stroke-width="1" stroke-opacity="0"></use></g></g></g></g></svg>