<?xml version="1.0" encoding="UTF-8" standalone="no"?>
<!DOCTYPE svg PUBLIC "-//W3C//DTD SVG 1.1//EN" "http://www.w3.org/Graphics/SVG/1.1/DTD/svg11.dtd">
<svg version="1.1" xmlns="http://www.w3.org/2000/svg" xmlns:xlink="http://www.w3.org/1999/xlink" preserveAspectRatio="xMidYMid meet" viewBox="0 0 640 640" width="640" height="640"><defs><path d="M32.47 24.95C23.01 20.65 11.72 23.21 5.14 31.35C-1.49 39.48 -1.72 51.05 4.59 59.41C17.62 76.79 82.76 163.64 200.01 319.98C82.76 476.32 17.62 563.17 4.59 580.54C-1.72 588.91 -1.49 600.52 5.09 608.61C9.52 614.14 16.15 617.11 22.87 617.11C26.12 617.11 29.36 616.43 32.43 615.01C91.85 587.58 567.27 368.16 626.7 340.73C634.83 336.98 640 328.89 640 319.98C640 311.07 634.83 302.97 626.74 299.23C507.89 244.37 91.9 52.37 32.47 24.95Z" id="audRbawid"></path></defs><g><g><g><use xlink:href="#audRbawid" opacity="1" fill="#b27092" fill-opacity="1"></use><g><use xlink:href="#audRbawid" opacity="1" fill-opacity="0" stroke="#000000" stroke-width="1" stroke-opacity="0"></use></g></g></g></g></svg>