<?xml version="1.0" encoding="UTF-8" standalone="no"?>
<!DOCTYPE svg PUBLIC "-//W3C//DTD SVG 1.1//EN" "http://www.w3.org/Graphics/SVG/1.1/DTD/svg11.dtd">
<svg version="1.1" xmlns="http://www.w3.org/2000/svg" xmlns:xlink="http://www.w3.org/1999/xlink" preserveAspectRatio="xMidYMid meet" viewBox="0 0 640 640" width="640" height="640"><defs><path d="M523.3 270.03C519.77 258.98 515.32 248.24 509.98 237.93C510.75 237.16 516.91 231 517.68 230.23C536.34 211.59 535.84 181.71 517.68 163.57C515.41 161.3 497.24 143.13 494.97 140.86C476.84 122.7 446.96 122.18 428.31 140.85C427.54 141.62 421.37 147.78 420.6 148.55C410.29 143.22 399.56 138.76 388.51 135.23C388.51 134.14 388.51 125.45 388.51 124.36C388.51 98.37 367.36 77.23 341.37 77.23C338.16 77.23 312.45 77.23 309.24 77.23C283.25 77.23 262.11 98.37 262.11 124.36C262.11 125.45 262.11 134.14 262.11 135.23C251.06 138.76 240.32 143.22 230.01 148.55C229.24 147.79 223.08 141.63 222.31 140.86C203.7 122.22 173.81 122.66 155.65 140.85C153.38 143.12 135.21 161.29 132.94 163.56C114.78 181.69 114.26 211.58 132.93 230.23C133.7 231 139.86 237.16 140.63 237.93C135.3 248.24 130.84 258.98 127.31 270.03C126.22 270.03 117.53 270.03 116.44 270.03C90.45 270.03 69.31 291.17 69.31 317.16C69.31 320.37 69.31 346.08 69.31 349.29C69.31 375.28 90.45 396.43 116.44 396.43C117.53 396.43 126.22 396.43 127.31 396.43C130.84 407.48 135.3 418.21 140.63 428.52C139.86 429.29 133.71 435.45 132.94 436.22C114.27 454.87 114.77 484.75 132.93 502.89C135.2 505.16 153.37 523.33 155.64 525.6C173.77 543.75 203.66 544.28 222.31 525.6C223.08 524.83 229.24 518.67 230.01 517.9C240.32 523.24 251.06 527.69 262.11 531.22C262.11 532.31 262.11 541.01 262.11 542.09C262.11 568.08 283.25 589.23 309.24 589.23C312.45 589.23 338.16 589.23 341.37 589.23C367.36 589.23 388.51 568.08 388.51 542.09C388.51 541.01 388.51 532.31 388.51 531.22C399.56 527.69 410.29 523.24 420.6 517.9C421.37 518.67 427.53 524.83 428.3 525.6C446.91 544.23 476.8 543.8 494.97 525.6C497.24 523.33 515.41 505.16 517.68 502.89C535.83 484.76 536.36 454.88 517.68 436.23C516.91 435.46 510.75 429.29 509.98 428.52C515.32 418.21 519.77 407.48 523.3 396.43C524.39 396.43 533.09 396.43 534.17 396.43C560.16 396.43 581.31 375.28 581.31 349.29C581.31 346.08 581.31 320.37 581.31 317.16C581.31 291.17 560.16 270.03 534.17 270.03C534.17 270.03 524.39 270.03 523.3 270.03ZM213.91 333.23C213.91 271.8 263.88 221.83 325.31 221.83C386.73 221.83 436.71 271.8 436.71 333.23C436.71 394.65 386.73 444.63 325.31 444.63C263.88 444.63 213.91 394.65 213.91 333.23Z" id="h1Ab2TillN"></path></defs><g><g><g><use xlink:href="#h1Ab2TillN" opacity="1" fill="#b27092" fill-opacity="1"></use><g><use xlink:href="#h1Ab2TillN" opacity="1" fill-opacity="0" stroke="#000000" stroke-width="1" stroke-opacity="0"></use></g></g></g></g></svg>