<?xml version="1.0" encoding="UTF-8" standalone="no"?>
<!DOCTYPE svg PUBLIC "-//W3C//DTD SVG 1.1//EN" "http://www.w3.org/Graphics/SVG/1.1/DTD/svg11.dtd">
<svg version="1.1" xmlns="http://www.w3.org/2000/svg" xmlns:xlink="http://www.w3.org/1999/xlink" preserveAspectRatio="xMidYMid meet" viewBox="0 0 640 640" width="640" height="640"><defs><path d="M546.26 97.65C517.65 69.41 483.62 46.92 444.17 30.19C404.73 13.46 363.35 5.1 320.01 5.1C279.18 5.1 239.67 12.71 201.47 27.93C163.28 43.15 129.32 64.61 99.59 92.3C94.18 87 50.84 44.54 45.42 39.24C37.09 30.73 27.51 28.82 16.67 33.47C5.56 38.14 0 46.23 0 57.75C0 76.18 0 223.6 0 242.03C0 249.16 2.64 255.33 7.92 260.54C13.2 265.75 19.45 268.35 26.67 268.35C45.34 268.35 194.67 268.35 213.34 268.35C225.01 268.35 233.2 262.87 237.93 251.9C242.64 241.2 240.7 231.75 232.09 223.52C226.38 217.84 180.71 172.43 175 166.75C194.46 148.65 216.67 134.74 241.67 125C266.68 115.27 292.78 110.4 320.01 110.4C348.89 110.4 376.47 115.96 402.72 127.06C428.97 138.16 451.67 153.18 470.84 172.1C490.01 191.02 505.22 213.43 516.47 239.35C527.71 265.26 533.34 292.48 533.34 321C533.34 349.52 527.71 376.74 516.47 402.65C505.22 428.56 490.01 450.98 470.84 469.9C451.67 488.82 428.96 503.84 402.72 514.94C376.47 526.05 348.89 531.6 320.01 531.6C286.95 531.6 255.7 524.47 226.25 510.22C196.81 495.96 171.95 475.81 151.67 449.74C149.73 447 146.53 445.36 142.09 444.8C137.92 444.8 134.45 446.04 131.67 448.5C125.96 454.18 80.3 499.59 74.59 505.27C72.37 507.47 71.19 510.28 71.05 513.7C70.91 517.14 71.82 520.22 73.76 522.96C104.04 559.16 140.7 587.2 183.76 607.07C226.81 626.95 272.23 636.9 320.01 636.9C363.35 636.9 404.73 628.53 444.17 611.8C483.62 595.08 517.64 572.59 546.26 544.35C574.87 516.1 597.65 482.51 614.59 443.57C631.54 404.63 640 363.77 640 321C640 278.21 631.53 237.37 614.59 198.43C597.65 159.48 574.87 125.89 546.26 97.65Z" id="a1Lmbb2C6W"></path></defs><g><g><g><use xlink:href="#a1Lmbb2C6W" opacity="1" fill="#b27092" fill-opacity="1"></use><g><use xlink:href="#a1Lmbb2C6W" opacity="1" fill-opacity="0" stroke="#000000" stroke-width="1" stroke-opacity="0"></use></g></g></g></g></svg>